<svg id="Layer_1" data-name="Layer 1" xmlns="http://www.w3.org/2000/svg" viewBox="0 0 106.8 81.139"><defs><style>.cls-1{fill:#0496ff;}.cls-2{fill:#214d8d;}</style></defs><title>logo colour small</title><path class="cls-1" d="M39.3,49.63V37.33H57.1V25.83a6.754,6.754,0,0,1,.536-2.464,6.169,6.169,0,0,1,5.728-3.834l0.036,0h6v-5.3a6.338,6.338,0,0,0-6.3-6.3H16.2a6.338,6.338,0,0,0-6.3,6.3v46.9a6.338,6.338,0,0,0,6.3,6.3H21v8.9c0,0.9.8,1.5,1.4,1l13.3-9.9H57.1V49.63H39.3Z" transform="translate(-9.9 -7.93)"/><path class="cls-2" d="M110.3,19.53H69.4v17.8H87.1v12.3H69.4v11.5a6.338,6.338,0,0,1-6.3,6.3h-6v5.3a6.338,6.338,0,0,0,6.3,6.3H90.9l13.3,9.9a0.961,0.961,0,0,0,1.4-1v-8.9h4.8a6.338,6.338,0,0,0,6.3-6.3V25.83A6.56,6.56,0,0,0,110.3,19.53Z" transform="translate(-9.9 -7.93)"/></svg>