<svg id="Layer_1" data-name="Layer 1" xmlns="http://www.w3.org/2000/svg" viewBox="0 0 453.55 83.139"><defs><style>.cls-1{isolation:isolate;}.cls-2{fill:#0496ff;}.cls-3{fill:#214d8d;}</style></defs><title>logo colour</title><g class="cls-1"><path class="cls-2" d="M189.75,74.57l-5.6-12.9h-24.9l-5.5,12.8h-14.1l25.7-59.4h12.8l25.7,59.4h-14.1v0.1Zm-18-41.8-7.5,17.3h14.9Z" transform="translate(-9.9 -7.93)"/><path class="cls-2" d="M232.05,28.07c5.3,0,10.1,2.2,14.2,6.7,4.2,4.4,6.2,10,6.2,16.8a24.3,24.3,0,0,1-6.2,16.9c-4.2,4.5-9,6.8-14.6,6.8a16.055,16.055,0,0,1-13.5-6.7v22.5h-12.8V28.87h12.8v5.1A18.762,18.762,0,0,1,232.05,28.07Zm-14,23.7a13.228,13.228,0,0,0,3.1,9.1,9.551,9.551,0,0,0,7.5,3.5,10.445,10.445,0,0,0,7.7-3.5,12.892,12.892,0,0,0,3.3-9.1,14,14,0,0,0-3.2-9.3,9.836,9.836,0,0,0-7.7-3.7,9.506,9.506,0,0,0-7.6,3.7A13.934,13.934,0,0,0,218.05,51.77Z" transform="translate(-9.9 -7.93)"/><path class="cls-2" d="M284.65,28.07c5.3,0,10.1,2.2,14.2,6.7,4.2,4.4,6.2,10,6.2,16.8a24.3,24.3,0,0,1-6.2,16.9c-4.2,4.5-9,6.8-14.6,6.8a16.055,16.055,0,0,1-13.5-6.7v22.5h-12.7V28.87h12.8v5.1A18.547,18.547,0,0,1,284.65,28.07Zm-14,23.7a13.228,13.228,0,0,0,3.1,9.1,9.551,9.551,0,0,0,7.5,3.5,10.445,10.445,0,0,0,7.7-3.5,12.892,12.892,0,0,0,3.3-9.1,14,14,0,0,0-3.2-9.3,9.836,9.836,0,0,0-7.7-3.7,9.506,9.506,0,0,0-7.6,3.7A13.935,13.935,0,0,0,270.65,51.77Z" transform="translate(-9.9 -7.93)"/></g><g class="cls-1"><path class="cls-3" d="M356.55,22.87c5.7,5.2,8.5,12.4,8.5,21.6s-2.8,16.5-8.3,21.9-14,8.1-25.3,8.1h-20.3V15.17h21C342.75,15.17,350.85,17.77,356.55,22.87Zm-9.7,35.4c3.3-3.1,4.9-7.5,4.9-13.3s-1.6-10.3-4.9-13.5c-3.3-3.1-8.3-4.7-15-4.7h-7.4v36.1h8.4C338.95,62.87,343.55,61.27,346.85,58.27Z" transform="translate(-9.9 -7.93)"/><path class="cls-3" d="M416.95,51.67a22.483,22.483,0,0,1-6.9,16.7,25.407,25.407,0,0,1-34.6,0,22.483,22.483,0,0,1-6.9-16.7,22.864,22.864,0,0,1,6.9-16.8c4.6-4.6,10.4-6.8,17.3-6.8a23.835,23.835,0,0,1,17.3,6.8A22.485,22.485,0,0,1,416.95,51.67Zm-35.5,0a13.114,13.114,0,0,0,3.2,9.1,10.255,10.255,0,0,0,8.2,3.5,10.879,10.879,0,0,0,8.2-3.5,13.289,13.289,0,0,0,3.2-9.1,13.551,13.551,0,0,0-3.2-9.2,10.335,10.335,0,0,0-8.2-3.6,10.622,10.622,0,0,0-8.2,3.6A13.077,13.077,0,0,0,381.45,51.67Z" transform="translate(-9.9 -7.93)"/><path class="cls-3" d="M444.35,63.97c4.3,0,8.1-2.1,11.5-6.4l7.6,8.5c-5.9,6.1-12.3,9.2-19.1,9.2a24.857,24.857,0,0,1-17.4-6.5c-4.7-4.3-7.1-10-7.1-17s2.4-12.7,7.2-17.1a24.385,24.385,0,0,1,17-6.6,27.837,27.837,0,0,1,10,2,25.466,25.466,0,0,1,8.9,6l-6.6,8.7a15.511,15.511,0,0,0-5.4-4.1,14.4,14.4,0,0,0-6.3-1.4,12.347,12.347,0,0,0-8.6,3.3c-2.4,2.2-3.6,5.2-3.6,9.1s1.2,6.9,3.6,9.1A11.98,11.98,0,0,0,444.35,63.97Z" transform="translate(-9.9 -7.93)"/></g><path class="cls-2" d="M39.3,49.63V37.33H57.1V25.83a6.754,6.754,0,0,1,.536-2.464,6.169,6.169,0,0,1,5.728-3.834l0.036,0h6v-5.3a6.338,6.338,0,0,0-6.3-6.3H16.2a6.338,6.338,0,0,0-6.3,6.3v46.9a6.338,6.338,0,0,0,6.3,6.3H21v8.9c0,0.9.8,1.5,1.4,1l13.3-9.9H57.1V49.63H39.3Z" transform="translate(-9.9 -7.93)"/><path class="cls-3" d="M110.3,19.53H69.4v17.8H87.1v12.3H69.4v11.5a6.338,6.338,0,0,1-6.3,6.3h-6v5.3a6.338,6.338,0,0,0,6.3,6.3H90.9l13.3,9.9a0.961,0.961,0,0,0,1.4-1v-8.9h4.8a6.338,6.338,0,0,0,6.3-6.3V25.83A6.56,6.56,0,0,0,110.3,19.53Z" transform="translate(-9.9 -7.93)"/></svg>