<?xml version="1.0" encoding="utf-8"?>
<!-- Generator: Adobe Illustrator 21.0.0, SVG Export Plug-In . SVG Version: 6.00 Build 0)  -->
<svg version="1.1" id="Layer_1" xmlns="http://www.w3.org/2000/svg" xmlns:xlink="http://www.w3.org/1999/xlink" x="0px" y="0px"
	 viewBox="-49 141 512 512" style="enable-background:new -49 141 512 512;" xml:space="preserve">
<style type="text/css">
	.st0{fill:#F7F7F7;}
	.st1{fill:#204D8D;}
	.st2{fill:#E5E5E5;}
	.st3{fill:#033668;}
</style>
<path class="st0" d="M445.3,626.5H-31.3c-9.8,0-17.7-7.9-17.7-17.7V202.8c0-9.8,7.9-17.7,17.7-17.7h476.7c9.8,0,17.7,7.9,17.7,17.7
	v406.1C463,618.6,455.1,626.5,445.3,626.5z"/>
<path class="st1" d="M463,273.4H-49v-70.6c0-9.8,7.9-17.7,17.7-17.7h476.7c9.8,0,17.7,7.9,17.7,17.7V273.4z"/>
<rect x="-49" y="273.4" class="st2" width="512" height="17.7"/>
<circle class="st3" cx="26" cy="224.9" r="26.5"/>
<path class="st2" d="M26,238.1L26,238.1c-7.3,0-13.2-5.9-13.2-13.2v-44.1c0-7.3,5.9-13.2,13.2-13.2l0,0c7.3,0,13.2,5.9,13.2,13.2
	v44.1C39.3,232.2,33.3,238.1,26,238.1z"/>
<path class="st0" d="M26,211.6c-7.3,0-13.2-5.9-13.2-13.2v26.5c0,7.3,5.9,13.2,13.2,13.2s13.2-5.9,13.2-13.2v-26.5
	C39.3,205.7,33.3,211.6,26,211.6z"/>
<circle class="st3" cx="388" cy="224.9" r="26.5"/>
<path class="st2" d="M388,238.1L388,238.1c-7.3,0-13.2-5.9-13.2-13.2v-44.1c0-7.3,5.9-13.2,13.2-13.2l0,0c7.3,0,13.2,5.9,13.2,13.2
	v44.1C401.2,232.2,395.3,238.1,388,238.1z"/>
<path class="st0" d="M388,211.6c-7.3,0-13.2-5.9-13.2-13.2v26.5c0,7.3,5.9,13.2,13.2,13.2s13.2-5.9,13.2-13.2v-26.5
	C401.2,205.7,395.3,211.6,388,211.6z"/>
</svg>
